PathFileType	4	(X/Y/Z)	c:/Users/goper/Files/vsCode/490R/osim_files/C12/C12_Static.trc
DataRate	CameraRate	NumFrames	NumMarkers	Units                	OrigDataRate	OrigDataStartFrame	OrigNumFrames
120.00	120.00	8	36	mm	120.0	102	812
                Frame#	Time	LPSIS			LASIS			LTH1			LTH2			LTH3			LTH4			LLFE			LMFE			LSH1			LSH2			LSH3			LSH4			LLMAL			LMMAL			LCAL			LMTP5			LTOE			LMTP1			RPSIS			RASIS			RTH1			RTH2			RTH3			RTH4			RLFE			RMFE			RSH1			RSH2			RSH3			RSH4			RLMAL			RMMAL			RCAL			RMTP1			RTOE			RMTP5		
		X1	Y1	Z1	X2	Y2	Z2	X3	Y3	Z3	X4	Y4	Z4	X5	Y5	Z5	X6	Y6	Z6	X7	Y7	Z7	X8	Y8	Z8	X9	Y9	Z9	X10	Y10	Z10	X11	Y11	Z11	X12	Y12	Z12	X13	Y13	Z13	X14	Y14	Z14	X15	Y15	Z15	X16	Y16	Z16	X17	Y17	Z17	X18	Y18	Z18	X19	Y19	Z19	X20	Y20	Z20	X21	Y21	Z21	X22	Y22	Z22	X23	Y23	Z23	X24	Y24	Z24	X25	Y25	Z25	X26	Y26	Z26	X27	Y27	Z27	X28	Y28	Z28	X29	Y29	Z29	X30	Y30	Z30	X31	Y31	Z31	X32	Y32	Z32	X33	Y33	Z33	X34	Y34	Z34	X35	Y35	Z35	X36	Y36	Z36

102	0.84167	-349.00629	1063.29211	432.84302	-170.42992	1031.88806	368.39200	-298.51062	762.79694	303.25827	-297.44397	718.31042	301.38245	-237.20569	761.02875	293.06396	-244.11722	716.28668	292.61502	-285.07019	535.02338	320.47943	-272.62018	513.45752	443.99619	-351.64130	446.34720	296.68240	-348.10800	400.37482	282.86374	-291.13263	445.59476	295.12521	-296.90063	399.22226	285.20743	-311.89734	102.95001	285.23325	-290.27994	103.21371	360.86395	-366.89719	72.52347	326.24170	-180.88112	40.18905	239.28522	-122.06395	70.39675	301.05069	-146.99368	41.83548	346.20883	-357.95285	1061.32703	542.88086	-174.39297	1025.66211	630.27826	-289.78101	763.16400	699.71600	-287.79498	717.49103	695.27887	-226.53105	758.68353	698.60297	-235.39291	711.47607	695.60394	-301.75232	536.61157	672.68488	-290.01047	520.60852	540.09460	-370.83157	442.34625	697.41510	-367.79581	400.23370	708.83801	-308.34088	438.91507	698.22052	-316.01495	398.28149	711.07581	-331.24207	102.45020	701.45648	-307.22217	112.95808	621.80511	-395.84262	63.59866	658.10608	-178.22432	47.42368	632.46472	-140.39474	67.34297	668.45087	-178.31245	41.18037	739.48853
103	0.85000	-348.97858	1063.33862	432.81046	-170.37248	1031.89282	368.37659	-298.43115	762.77765	303.22473	-297.34314	718.33038	301.28723	-237.10904	761.01508	293.04828	-244.05174	716.26776	292.59177	-284.99557	535.00928	320.44513	-272.52991	513.50421	443.95306	-351.57578	446.34683	296.62207	-348.05051	400.36603	282.83661	-291.05954	445.58603	295.08557	-296.84354	399.20029	285.18643	-311.88327	102.97339	285.18896	-290.26273	103.23256	360.84250	-366.88745	72.56872	326.19836	-180.88066	40.17189	239.27441	-122.06515	70.39014	301.04236	-147.02235	41.81173	346.18314	-357.86530	1061.35010	542.82458	-174.27591	1025.67554	630.24084	-289.77423	763.18945	699.66968	-287.71881	717.53235	695.23511	-226.48727	758.66071	698.56445	-235.28105	711.51575	695.56775	-301.68594	536.63617	672.64648	-289.98831	520.59271	540.08844	-370.78619	442.37460	697.37366	-367.80716	400.24768	708.77734	-308.28708	438.93130	698.16675	-315.99554	398.31284	711.02917	-331.23569	102.47439	701.41357	-307.20804	112.94360	621.78723	-395.75348	63.59716	658.05176	-178.24211	47.41797	632.45758	-140.39189	67.36295	668.42133	-178.31091	41.20679	739.45245
104	0.85833	-348.91449	1063.38159	432.79364	-170.29597	1031.84729	368.39600	-298.37488	762.78998	303.21277	-297.27518	718.36627	301.25644	-237.03395	761.01544	293.03897	-243.94893	716.27527	292.57123	-284.90942	534.99255	320.43875	-272.47772	513.51465	443.93060	-351.50677	446.36761	296.59906	-348.28168	400.36560	282.75461	-290.99625	445.57257	295.08887	-296.78134	399.21213	285.18356	-311.89478	102.98743	285.17587	-290.25668	103.20580	360.83957	-366.92630	72.51659	326.33087	-180.88509	40.12977	239.28827	-122.07169	70.36715	301.06906	-147.01953	41.76601	346.19321	-357.84894	1061.39539	542.80426	-174.21709	1025.61011	630.22614	-289.69815	763.17358	699.69092	-287.67126	717.48206	695.25519	-226.47937	758.58386	698.58008	-235.22864	711.48877	695.58563	-301.67703	536.59686	672.67395	-289.94559	520.58685	540.06195	-370.77292	442.37244	697.36743	-367.79074	400.26559	708.78345	-308.28528	438.92450	698.17816	-315.98123	398.29297	711.02710	-331.22107	102.44848	701.42047	-307.22662	112.94662	621.78711	-395.76138	63.63016	658.01953	-178.21664	47.38481	632.49512	-140.38438	67.36977	668.42261	-178.33115	41.19899	739.47998
105	0.86667	-348.78214	1063.35803	432.82693	-170.18628	1031.83203	368.41171	-298.29633	762.78430	303.24661	-297.20187	718.36639	301.27289	-236.92789	761.02252	293.04663	-243.86613	716.25531	292.59552	-284.87537	534.99042	320.45990	-272.40628	513.52020	443.92584	-351.47235	446.35794	296.62003	-347.96252	400.34903	282.83957	-290.96649	445.55136	295.08517	-296.72449	399.23346	285.18372	-311.89777	102.98913	285.19772	-290.24661	103.17020	360.86542	-366.93515	72.42450	326.43567	-180.91103	40.09002	239.32880	-122.05660	70.34355	301.11200	-147.01274	41.73285	346.22000	-357.71228	1061.37476	542.84363	-174.10582	1025.56775	630.26184	-289.60019	763.14844	699.72888	-287.61169	717.41302	695.27197	-226.45041	758.53003	698.60364	-235.14407	711.44080	695.62463	-301.61667	536.54755	672.69366	-289.88376	520.56445	540.08313	-370.71793	442.35303	697.40015	-367.75665	400.22711	708.81958	-308.23746	438.89819	698.19336	-315.98526	398.24841	711.05402	-331.16599	102.41767	701.47498	-307.19122	112.95334	621.80603	-395.76840	63.63120	658.04303	-178.17410	47.38635	632.51752	-140.35963	67.35204	668.44916	-178.34058	41.14584	739.50934
106	0.87500	-348.64941	1063.27881	432.86481	-170.06729	1031.80005	368.41760	-298.23947	762.73596	303.26279	-297.11856	718.31543	301.32504	-236.76726	761.02625	293.05624	-243.81035	716.21851	292.60699	-284.83310	534.96997	320.47540	-272.33774	513.50177	443.94876	-351.43848	446.34995	296.65799	-348.25006	400.30820	282.82422	-290.93585	445.53629	295.09015	-296.67981	399.23520	285.18756	-311.90918	102.94565	285.26358	-290.24359	103.10584	360.90057	-366.94235	72.31656	326.49762	-180.91176	40.04693	239.36438	-122.03441	70.31321	301.13666	-147.00755	41.70995	346.24594	-357.57141	1061.29614	542.89203	-173.98955	1025.49561	630.31903	-289.52420	763.06940	699.76703	-287.51468	717.31616	695.28699	-226.32280	758.51550	698.62885	-235.09720	711.37628	695.64996	-301.59879	536.48602	672.72284	-289.87103	520.53296	540.09998	-370.67859	442.28427	697.45129	-367.65668	400.16800	708.89471	-308.22403	438.87051	698.25342	-315.97253	398.19470	711.10608	-331.17026	102.35059	701.51202	-307.19092	112.93802	621.81403	-395.76501	63.58823	658.11194	-178.17801	47.35858	632.54767	-140.36200	67.30297	668.49158	-178.36250	41.08987	739.56067
107	0.88333	-348.52335	1063.17065	432.86542	-169.95367	1031.79395	368.41104	-298.14664	762.69037	303.25266	-297.07809	718.23907	301.34512	-236.71202	761.01648	293.04489	-243.77904	716.19049	292.59650	-284.80536	534.95117	320.47598	-272.34888	513.43640	443.95990	-351.44684	446.30634	296.65350	-348.23871	400.26877	282.82776	-290.92542	445.51761	295.09021	-296.65720	399.22665	285.16873	-311.94742	102.88826	285.28653	-290.28006	103.05811	360.88153	-366.96609	72.27909	326.45367	-180.91476	40.02283	239.35582	-122.02966	70.29386	301.11331	-146.98703	41.72145	346.23709	-357.43463	1061.19336	542.89496	-173.41628	1025.57300	630.34991	-289.52194	763.02271	699.72296	-287.50259	717.26141	695.26764	-226.21313	758.56909	698.62512	-235.09476	711.33099	695.64062	-301.58380	536.44812	672.69806	-289.84570	520.50732	540.09503	-370.67029	442.25464	697.43024	-367.65311	400.10172	708.86298	-308.21808	438.85577	698.24823	-315.97293	398.16510	711.11517	-331.22446	102.30711	701.50000	-307.23840	112.91428	621.80219	-395.86041	63.46784	658.20966	-178.19948	47.33905	632.52588	-140.38051	67.26022	668.49396	-178.36964	41.05817	739.55426
108	0.89167	-348.42642	1063.13293	432.83179	-169.85429	1031.83276	368.37076	-298.11505	762.67987	303.23688	-297.02783	718.21655	301.31662	-236.66676	760.98914	293.02542	-243.77235	716.15845	292.57465	-284.77188	534.93243	320.44229	-272.30386	513.45642	443.94415	-351.42126	446.30341	296.64212	-348.25497	400.24612	282.82855	-290.94345	445.50119	295.06393	-296.67343	399.19363	285.14825	-311.94870	102.88451	285.25491	-290.27139	103.10381	360.84860	-366.93164	72.37619	326.29730	-180.94296	40.05490	239.29927	-122.04362	70.32945	301.06879	-146.96336	41.77259	346.19730	-357.31567	1061.15002	542.85321	-173.31737	1025.59192	630.30640	-289.52051	763.04944	699.67218	-287.49719	717.31744	695.20532	-226.13412	758.64447	698.59192	-234.99684	711.42432	695.60962	-301.58298	536.51355	672.66028	-289.86374	520.47717	540.07465	-370.67191	442.28409	697.38629	-367.67758	400.13016	708.81500	-308.15891	438.91382	698.20770	-315.93588	398.20395	711.07361	-331.24921	102.33882	701.43915	-307.22452	112.89765	621.79291	-395.82352	63.51374	658.13666	-178.19516	47.39185	632.48145	-140.39154	67.28101	668.46198	-178.36139	41.06725	739.53247
109	0.90000	-348.34915	1063.17908	432.80832	-169.73384	1031.89026	368.32727	-298.07285	762.68958	303.22015	-296.96878	718.24689	301.27203	-236.62888	760.98419	293.01700	-243.74287	716.16718	292.54715	-284.77133	534.94244	320.42908	-272.22330	513.48041	443.92303	-351.39859	446.32080	296.62024	-348.21875	400.27917	282.78391	-290.93484	445.49716	295.04544	-296.66156	399.18976	285.14047	-311.92456	102.90714	285.23358	-290.29361	103.17545	360.81473	-366.94708	72.54752	326.13773	-181.04980	39.86101	239.45494	-122.02331	70.41531	301.02631	-146.93138	41.82795	346.14624	-357.28140	1061.20996	542.82062	-173.21005	1025.64172	630.27875	-289.50049	763.14398	699.61804	-287.47876	717.42426	695.16516	-226.11745	758.66290	698.55249	-234.97348	711.50220	695.57642	-301.54196	536.58655	672.63434	-289.84808	520.47394	540.07770	-370.66211	442.34833	697.35352	-367.68680	400.22293	708.75867	-308.11389	438.95767	698.13190	-315.91168	398.24850	711.02643	-331.26541	102.43343	701.39978	-307.23361	112.91058	621.79431	-395.85892	63.59946	658.02924	-178.17874	47.44855	632.43237	-140.37912	67.34444	668.41809	-178.38300	41.13193	739.48169
